<svg height="512pt" viewBox="0 -1 512 512" width="512pt" xmlns="http://www.w3.org/2000/svg"><path d="m512 129.355469-41.65625-40.003907c22.03125-4.488281 38.660156-24.011718 38.660156-47.347656v-42.003906h-29.941406v42.003906c0 10.132813-8.242188 18.378906-18.378906 18.378906h-11.5625v-60.382812h-29.941406v60.382812h-59.882813v-60.382812h-29.941406v60.382812h-15.882813c-7.75 0-14.058594-6.304687-14.058594-14.054687v-46.328125h-29.941406v46.328125c0 24.257813 19.738282 43.996094 44 43.996094h6.675782l-36.101563 72.503906c-5.472656 10.992187-16.5 17.820313-28.777344 17.820313h-255.269531v29.941406h29.941406v119.339844l-29.941406.839843v179.234375h89.824219v-91.59375c17.941406-4.316406 33.203125-16.324218 41.640625-33.4375l12.582031-25.515625h155.367187v150.546875h88.402344l16.195313-161.941406c14.222656-36.511719 19.578125-81.625 16.289062-137.472656h91.699219zm-29.941406 51.292969h-94.148438l1.382813 16.238281c5.089843 59.710937.554687 106.167969-13.859375 142.023437l-.796875 1.976563-13.917969 139.175781h-31.363281v-150.546875h-151.5c4.945312-8.753906 7.78125-18.851563 7.78125-29.601563h-29.941407c0 14.347657-9.980468 26.402344-23.363281 29.601563h-6.90625l-20.816406 42.21875c-5.628906 11.414063-17.03125 18.503906-29.753906 18.503906h-14.972657v89.824219h-29.941406v-120.179688l29.941406-.839843v-148.453125h195.386719c23.714844 0 45.011719-13.1875 55.582031-34.414063l42.746094-85.851562h74.53125l53.929688 51.789062zm0 0"/><path d="m389.238281 105.296875h29.941407v30.4375h-29.941407zm0 0"/></svg>